<svg xmlns="http://www.w3.org/2000/svg" xml:space="preserve" width="232.219mm" height="81.309mm" 
viewBox="0 0 23222 8131"
 xmlns:xlink="http://www.w3.org/1999/xlink">
 <defs>
  <style type="text/css">
   <![CDATA[
    .fil1 {fill:#FEFEFE}
    .fil0 {fill:#0E2F56}
    .fil2 {fill:#55ADDB}
   ]]>
  </style>
 </defs>
 <g id="logo">
  <g id="_1977493985200">
   <path class="fil0" d="M3595 2035c960,0 1738,778 1738,1737 0,960 -778,1738 -1738,1738 -960,0 -1738,-778 -1738,-1738 0,-959 778,-1737 1738,-1737z"/>
   <path class="fil1" d="M3595 2340c791,0 1432,641 1432,1432 0,791 -641,1433 -1432,1433 -791,0 -1432,-642 -1432,-1433 0,-791 641,-1432 1432,-1432z"/>
   <path class="fil0" d="M3602 2458l303 985 985 302 -985 303 -303 984 -302 -984 -985 -303 985 -302 302 -985zm0 985c178,0 322,144 322,322 0,177 -144,322 -322,322 -177,0 -321,-145 -321,-322 0,-178 144,-322 321,-322z"/>
   <path class="fil2" d="M1795 2884c-257,559 -265,1133 0,1724l-1795 -845 1795 -879z"/>
   <path class="fil0" d="M1424 3241c-151,328 -155,664 0,1010l-1053 -495 1053 -515z"/>
   <path class="fil2" d="M5395 2911c257,558 264,1132 0,1723l1795 -845 -1795 -878z"/>
   <path class="fil0" d="M5766 3267c151,328 155,664 0,1011l1053 -496 -1053 -515z"/>
   <path class="fil2" d="M4485 5570c-559,257 -1133,264 -1723,0l845 1795 878 -1795z"/>
   <path class="fil0" d="M4129 5941c-328,151 -665,155 -1011,0l495 1053 516 -1053z"/>
   <path class="fil2" d="M4457 1975c-559,-257 -1133,-264 -1724,0l845 -1795 879 1795z"/>
   <path class="fil0" d="M4100 1589c-327,-151 -664,-155 -1010,0l495 -1052 515 1052z"/>
   <path class="fil2" d="M3742 3535c-240,-256 -778,-481 -937,-574 90,157 326,684 575,933 325,325 650,-52 362,-359zm-236 127c41,-41 108,-41 149,0 41,41 41,108 0,149 -41,42 -108,42 -149,0 -42,-41 -42,-108 0,-149z"/>
   <path class="fil2" d="M3677 4127c194,-60 227,-109 299,-299l364 665 -663 -366z"/>
   <path class="fil0" d="M8737 2987l0 2023 -501 0 0 -2600c0,-209 41,-362 124,-458 82,-97 210,-146 382,-146 142,0 269,41 380,122 112,80 226,216 343,408l691 1127 0 -1557 502 0 0 2701c0,186 -27,319 -82,399 -55,79 -146,118 -270,118 -95,0 -180,-31 -257,-94 -78,-63 -173,-182 -286,-356l-1026 -1687zm2057 2023l809 -2530c80,-252 170,-428 272,-527 101,-98 239,-147 411,-147 161,0 288,43 378,130 91,86 176,251 252,495l838 2579 -1062 0 -171 -567 -1033 0 -165 567 -529 0zm823 -997l774 0 -372 -1347 -402 1347zm3290 -1677l0 2244c344,-5 589,-94 739,-264 148,-172 222,-457 222,-853 0,-399 -75,-685 -225,-859 -149,-173 -394,-263 -736,-268zm0 3818l-1017 -9 0 -4239 1175 0c620,0 1092,141 1414,423 324,283 485,693 485,1232 0,492 -144,857 -433,1097 -289,239 -728,359 -1315,359 -85,0 -147,-2 -189,-3 -43,-1 -83,-2 -120,-4l0 1144zm4225 -2663c0,-421 -43,-739 -128,-952 -86,-211 -215,-317 -388,-317 -162,0 -282,100 -361,302 -80,202 -120,506 -120,915 0,424 43,743 131,957 86,213 215,320 386,320 161,0 281,-102 360,-305 80,-203 120,-509 120,-920zm-495 1633c-455,0 -834,-166 -1136,-497 -303,-332 -455,-746 -455,-1245 0,-477 145,-858 434,-1146 289,-287 675,-430 1157,-430 453,0 829,166 1131,499 303,332 453,748 453,1247 0,482 -143,864 -429,1147 -285,283 -670,425 -1155,425zm2687 -1074c0,191 32,322 95,391 65,68 188,103 369,103l252 0 0 466 -860 0c-318,0 -543,-70 -673,-207 -129,-137 -194,-383 -194,-738l0 -4065 1011 0 0 4050zm859 960l0 -3104 1010 0 0 3104 -1010 0zm-22 -4378c0,-147 52,-272 156,-376 103,-104 228,-156 373,-156 150,0 275,52 378,154 103,103 154,229 154,378 0,148 -51,272 -155,375 -104,103 -230,154 -377,154 -145,0 -270,-51 -373,-155 -104,-104 -156,-228 -156,-374z"/>
   <path class="fil2" d="M8421 7855l0 -543 -175 0 0 -111 563 0 0 111 -175 0 0 543 -213 0zm786 -654l213 0 0 399c0,58 8,100 24,124 16,25 43,37 80,37 39,0 66,-12 82,-37 16,-24 24,-66 24,-124l0 -399 106 0 0 423c0,85 -22,148 -66,191 -44,43 -110,64 -199,64 -90,0 -156,-21 -199,-62 -43,-42 -65,-106 -65,-193l0 -423zm1000 654l0 -654 285 0c88,0 155,16 201,49 45,33 68,82 68,145 0,44 -10,80 -30,107 -21,28 -51,47 -92,58l192 295 -250 0 -148 -309 0 -11c41,-6 71,-19 90,-40 19,-20 28,-49 28,-87 0,-38 -10,-68 -30,-87 -20,-20 -50,-30 -90,-30 -5,0 -10,0 -14,1 -3,0 -6,0 -9,1l0 562 -201 0zm1007 0l0 -654 213 0 0 654 -213 0zm-5 -923c0,-31 11,-57 33,-79 22,-22 48,-33 79,-33 31,0 58,11 79,33 22,21 33,48 33,79 0,31 -11,57 -33,79 -22,22 -48,33 -79,33 -31,0 -57,-11 -79,-33 -22,-22 -33,-48 -33,-79zm675 923l0 -99 173 0c41,0 69,-5 85,-16 16,-11 24,-30 24,-56 0,-33 -33,-60 -98,-79 -20,-6 -35,-11 -47,-14 -64,-22 -108,-45 -132,-72 -24,-26 -36,-63 -36,-108 0,-69 23,-121 68,-156 45,-36 110,-54 196,-54l170 0 0 98 -148 0c-24,0 -43,4 -56,13 -14,8 -21,20 -21,35 0,28 29,50 86,68 12,4 22,7 28,9 70,23 117,48 142,77 25,29 37,70 37,123 0,71 -23,128 -68,169 -45,41 -107,62 -186,62l-217 0zm890 0l0 -565c0,-37 11,-65 32,-83 21,-18 53,-27 95,-27 34,0 61,7 80,22 20,15 38,42 53,80l88 212 85 -212c15,-39 32,-66 52,-81 19,-14 46,-21 82,-21 43,0 76,9 97,27 22,18 33,46 33,83l0 565 -210 0 0 -483 -189 483 -7 0 -185 -464 0 464 -106 0zm1561 -320c0,-89 -9,-156 -27,-201 -18,-45 -45,-67 -81,-67 -34,0 -60,21 -76,64 -17,42 -26,106 -26,193 0,89 9,156 28,201 18,45 45,68 81,68 34,0 60,-22 76,-65 17,-42 25,-107 25,-193zm-104 344c-96,0 -176,-35 -239,-105 -64,-70 -96,-157 -96,-263 0,-100 30,-180 91,-241 61,-60 142,-90 244,-90 96,0 175,34 238,105 64,70 96,157 96,262 0,102 -30,182 -90,242 -61,60 -142,90 -244,90zm1560 -920l95 151c19,-11 33,-23 43,-37 9,-15 14,-31 14,-49 0,-25 -8,-46 -25,-63 -17,-18 -37,-26 -61,-26 -15,0 -27,2 -38,5 -10,4 -20,10 -28,19zm174 735l-207 -312c-26,13 -45,31 -58,53 -13,23 -20,49 -20,80 0,54 20,102 59,142 39,41 84,62 136,62 15,0 30,-2 45,-7 15,-4 30,-10 45,-18zm111 161l-47 -71c-37,31 -79,54 -123,70 -45,15 -94,23 -149,23 -99,0 -181,-29 -246,-89 -65,-60 -98,-134 -98,-223 0,-64 19,-120 58,-170 39,-49 103,-99 193,-150l-88 -163c0,-67 24,-123 71,-168 48,-45 108,-67 180,-67 65,0 119,19 160,57 41,37 62,85 62,144 0,33 -7,64 -22,92 -15,29 -37,54 -66,78l185 282c11,-20 20,-43 26,-68 6,-25 8,-54 8,-86 0,-11 0,-24 -2,-38 -1,-13 -3,-29 -7,-45l100 0c1,9 2,20 2,31 1,11 1,27 1,49 0,54 -5,101 -16,142 -11,41 -28,77 -51,108l174 262 -305 0zm1670 -654l-144 528c-14,53 -34,92 -58,115 -24,23 -56,35 -96,35 -41,0 -73,-11 -97,-34 -23,-21 -43,-60 -59,-114l-153 -530 226 0 136 504 133 -504 112 0zm410 654l0 -654 213 0 0 654 -213 0zm-5 -923c0,-31 11,-57 33,-79 22,-22 48,-33 79,-33 31,0 58,11 79,33 22,21 33,48 33,79 0,31 -11,57 -33,79 -22,22 -48,33 -79,33 -31,0 -57,-11 -79,-33 -22,-22 -33,-48 -33,-79zm616 923l170 -534c17,-53 36,-90 58,-111 21,-20 50,-30 86,-30 34,0 61,9 80,27 19,18 37,53 53,104l177 544 -224 0 -36 -120 -218 0 -34 120 -112 0zm174 -210l163 0 -79 -284 -84 284zm1476 -126l0 612 -202 0 0 -299c-24,16 -48,27 -75,35 -26,8 -53,12 -82,12 -92,0 -167,-33 -226,-97 -60,-65 -90,-148 -90,-249 0,-105 31,-190 93,-255 62,-66 140,-98 237,-98 66,0 120,14 165,42 44,28 76,70 96,125l-92 53c-11,-41 -26,-71 -47,-92 -21,-20 -47,-30 -78,-30 -45,0 -80,21 -105,64 -24,42 -36,104 -36,185 0,87 10,150 30,189 20,39 53,59 98,59 38,0 66,-12 84,-35 19,-23 28,-57 28,-103l0 -118 202 0zm575 336c-51,0 -86,-12 -107,-34 -21,-22 -32,-61 -32,-116l0 -355c0,-55 11,-93 32,-116 21,-22 56,-33 107,-33l304 0 0 98 -162 0c-27,0 -45,5 -54,14 -9,10 -14,30 -14,59l0 107 206 0 0 98 -206 0 0 109c0,28 5,47 14,56 9,10 27,14 54,14l173 0 0 99 -315 0zm866 -427l0 427 -106 0 0 -548c0,-44 9,-76 26,-97 17,-20 44,-30 81,-30 30,0 56,8 80,25 23,17 47,46 72,86l146 238 0 -328 105 0 0 569c0,39 -5,67 -17,84 -12,16 -31,25 -57,25 -20,0 -38,-7 -54,-20 -16,-14 -37,-38 -60,-75l-216 -356zm857 427l0 -99 173 0c41,0 69,-5 85,-16 16,-11 24,-30 24,-56 0,-33 -33,-60 -98,-79 -20,-6 -35,-11 -47,-14 -64,-22 -108,-45 -132,-72 -24,-26 -36,-63 -36,-108 0,-69 23,-121 68,-156 45,-36 110,-54 195,-54l171 0 0 98 -148 0c-24,0 -43,4 -57,13 -13,8 -20,20 -20,35 0,28 29,50 86,68 12,4 22,7 28,9 70,23 117,48 142,77 24,29 37,70 37,123 0,71 -23,128 -68,169 -45,41 -107,62 -186,62l-217 0z"/>
  </g>
 </g>
</svg>
