<svg width="16" height="16" viewBox="0 0 16 16" fill="none" xmlns="http://www.w3.org/2000/svg">
<path d="M0 1.17211e-10H16V16H0V1.17211e-10Z" fill="#252525"/>
<path d="M4.3947 2.30338L0.914955 5.78313C0.624912 6.07268 0.394806 6.41658 0.237808 6.79515C0.0808096 7.17372 0 7.57953 0 7.98936C0 8.3992 0.0808096 8.80501 0.237808 9.18358C0.394806 9.56215 0.624912 9.90604 0.914955 10.1956L5.79377 15.0278C5.95228 15.1703 6.12006 15.3021 6.29601 15.4224V14.5004C6.18839 14.3928 6.08076 14.3211 5.97314 14.2134L1.74005 9.98035C1.47171 9.7154 1.25865 9.39981 1.11324 9.05187C0.967819 8.70394 0.892939 8.33059 0.892939 7.95349C0.892939 7.57639 0.967819 7.20304 1.11324 6.85511C1.25865 6.50717 1.47171 6.19158 1.74005 5.92663L4.3947 3.27197V2.30338Z" fill="white"/>
<path d="M4.3947 4.99391V3.81008L1.99117 6.24949C1.53105 6.7189 1.27333 7.35 1.27333 8.0073C1.27333 8.6646 1.53105 9.2957 1.99117 9.76511L6.22426 13.9982L6.26013 14.07V10.9489C6.296 10.5543 6.29601 10.1597 6.36775 9.76511C5.04043 8.65303 4.3947 6.85934 4.3947 4.99391Z" fill="white"/>
<path d="M8.16656 0.00418384C7.39927 -0.0355036 6.64416 0.208249 6.04489 0.689068V1.65766C6.58378 1.14176 7.30476 0.859802 8.05066 0.873242C8.79656 0.886681 9.50691 1.19443 10.0269 1.72941L14.26 5.92663C14.7946 6.47299 15.094 7.20701 15.094 7.97143C15.094 8.73584 14.7946 9.46986 14.26 10.0162L10.0269 14.2386C9.48014 14.7716 8.7456 15.068 7.98207 15.0637H7.91032V15.9605C8.32896 15.9787 8.7467 15.9082 9.13619 15.7536C9.52567 15.599 9.87809 15.3639 10.1704 15.0637L15.0851 10.1597C15.3749 9.87373 15.605 9.53301 15.7621 9.15736C15.9191 8.7817 16 8.37859 16 7.97143C16 7.56426 15.9191 7.16115 15.7621 6.78549C15.605 6.40984 15.3749 6.06912 15.0851 5.78313L10.2062 0.90431C9.65977 0.364229 8.93384 0.0438712 8.16656 0.00418384Z" fill="white"/>
<path d="M7.91032 10.6261V14.7049H7.98207C8.63932 14.705 9.27041 14.4474 9.73988 13.9874L13.973 9.75435C14.2155 9.53111 14.408 9.25906 14.5378 8.95609C14.6677 8.65313 14.7319 8.32611 14.7263 7.99654C14.7217 7.32267 14.4509 6.67796 13.973 6.20285L9.73988 1.96976C9.26312 1.50988 8.62654 1.2529 7.96413 1.2529C7.30172 1.2529 6.66514 1.50988 6.18838 1.96976L6.00902 2.14913V4.98315C5.94422 6.05638 6.24798 7.11954 6.86999 7.99654C7.24908 7.06982 7.90236 6.28112 8.7423 5.73613C9.58223 5.19113 10.5687 4.91589 11.5694 4.94727V6.56159C10.8114 6.50806 10.0581 6.71805 9.43711 7.15603C8.81609 7.59402 8.36545 8.23309 8.16144 8.96513C8.62415 9.17039 9.12614 9.27201 9.63226 9.26288V10.8772C9.04883 10.8818 8.46813 10.7971 7.91032 10.6261Z" fill="white"/>
</svg>
