<svg width="20" height="20" viewBox="0 0 20 20" fill="none" xmlns="http://www.w3.org/2000/svg">
<g clip-path="url(#clip0_111_8)">
<path d="M15.12 10.8892V9.11083L13.7917 10L15.12 10.8892ZM16.1833 11.8842C16.1832 11.9073 16.1815 11.9304 16.1783 11.9533L16.1742 11.9767L16.165 12.0208L16.1567 12.0467C16.1525 12.06 16.1483 12.0725 16.1425 12.0858L16.1308 12.1108C16.1254 12.123 16.1195 12.1349 16.1133 12.1467L16.0975 12.1717C16.0785 12.2019 16.0561 12.2298 16.0308 12.255L16.0092 12.2758C15.9995 12.2846 15.9895 12.2929 15.9792 12.3008L15.955 12.3192L15.9467 12.3258L10.295 16.0942C10.2077 16.1525 10.105 16.1837 10 16.1837C9.89498 16.1837 9.79231 16.1525 9.705 16.0942L4.05333 12.325L4.045 12.3183C4.02596 12.3052 4.00786 12.2907 3.99083 12.275L3.96917 12.2542L3.9425 12.2258L3.925 12.2025C3.90309 12.1741 3.88437 12.1433 3.86917 12.1108L3.8575 12.085C3.85227 12.0721 3.84755 12.0591 3.84333 12.0458L3.835 12.0208C3.83167 12.0058 3.82833 11.9908 3.82667 11.9758L3.82167 11.9525C3.81847 11.9296 3.8168 11.9065 3.81667 11.8833V8.11583C3.81667 8.0925 3.81833 8.07 3.82167 8.04667L3.82583 8.02417L3.835 7.97917L3.84333 7.95417C3.86309 7.88732 3.89722 7.8256 3.94333 7.77333L3.96917 7.745L3.99083 7.72417C4.0079 7.70852 4.02599 7.69405 4.045 7.68083L4.05333 7.67417L9.705 3.90667C9.79235 3.84841 9.895 3.81732 10 3.81732C10.105 3.81732 10.2076 3.84841 10.295 3.90667L15.9467 7.67417L15.955 7.68083L15.98 7.69917L16.0092 7.72417C16.0175 7.73083 16.0233 7.7375 16.0308 7.745C16.0563 7.77006 16.0786 7.79803 16.0975 7.82833L16.1133 7.85333C16.1196 7.86505 16.1255 7.87701 16.1308 7.88917L16.1425 7.91417C16.1483 7.9275 16.1525 7.94083 16.1567 7.95333L16.165 7.97917C16.1683 7.99417 16.1717 8.00917 16.1733 8.02417L16.1783 8.04667C16.1815 8.06958 16.1832 8.09269 16.1833 8.11583V11.8842ZM10 0C4.4775 0 0 4.47667 0 10C0 15.5225 4.4775 20 10 20C15.5233 20 20 15.5233 20 10C20 4.4775 15.5233 0 10 0ZM10 8.74333L8.12083 10L10 11.2583L11.8792 10L10 8.74333ZM10.5317 12.18V14.6592L14.695 11.8842L12.835 10.64L10.5317 12.18ZM5.305 11.8833L9.46833 14.6583V12.18L7.165 10.6392L5.305 11.8833ZM14.695 8.11667L10.5317 5.34167V7.82L12.835 9.36167L14.695 8.11667ZM9.46833 7.82V5.34167L5.305 8.11667L7.165 9.36083L9.46833 7.82ZM4.88 9.11083V10.8892L6.20833 10L4.88 9.11083Z" fill="white"/>
</g>
<defs>
<clipPath id="clip0_111_8">
<rect width="20" height="20" fill="white"/>
</clipPath>
</defs>
</svg>
