<svg width="200" height="33" viewBox="0 0 200 33" fill="none" xmlns="http://www.w3.org/2000/svg">
<path fill-rule="evenodd" clip-rule="evenodd" d="M193.781 13.1664C195.011 13.1664 196.213 13.5312 197.236 14.2146C198.259 14.898 199.056 15.8694 199.527 17.0059C199.998 18.1424 200.121 19.393 199.881 20.5995C199.641 21.806 199.048 22.9143 198.179 23.7841C197.309 24.6539 196.2 25.2463 194.994 25.4863C193.787 25.7263 192.537 25.6031 191.4 25.1324C190.264 24.6616 189.293 23.8644 188.609 22.8416C187.926 21.8188 187.561 20.6162 187.561 19.3861C187.59 17.7456 188.255 16.1804 189.415 15.0202C190.575 13.86 192.14 13.1954 193.781 13.1664ZM193.781 15.105C194.632 15.113 195.462 15.3722 196.166 15.8501C196.871 16.328 197.418 17.0033 197.74 17.7913C198.062 18.5793 198.144 19.4448 197.976 20.2793C197.808 21.1138 197.398 21.8801 196.796 22.482C196.194 23.084 195.428 23.4947 194.593 23.6628C193.759 23.8308 192.893 23.7486 192.105 23.4266C191.317 23.1045 190.642 22.5569 190.164 21.8524C189.686 21.148 189.427 20.3181 189.419 19.4669C189.441 18.3172 189.908 17.2209 190.721 16.4077C191.535 15.5946 192.631 15.1277 193.781 15.105ZM125.121 13.3279C126.352 13.3279 127.554 13.6927 128.577 14.3762C129.6 15.0596 130.397 16.031 130.868 17.1675C131.338 18.304 131.462 19.5546 131.222 20.7611C130.982 21.9676 130.389 23.0758 129.519 23.9456C128.65 24.8155 127.541 25.4079 126.335 25.6479C125.128 25.8878 123.878 25.7647 122.741 25.2939C121.605 24.8232 120.633 24.026 119.95 23.0031C119.267 21.9803 118.902 20.7778 118.902 19.5477C118.902 17.8981 119.557 16.3161 120.723 15.1497C121.89 13.9832 123.472 13.3279 125.121 13.3279ZM125.121 15.1858C125.973 15.1938 126.803 15.453 127.507 15.9309C128.211 16.4088 128.759 17.0841 129.081 17.8721C129.403 18.6601 129.485 19.5256 129.317 20.3601C129.149 21.1946 128.739 21.9609 128.137 22.5628C127.535 23.1648 126.768 23.5755 125.934 23.7435C125.099 23.9116 124.234 23.8294 123.446 23.5073C122.658 23.1853 121.983 22.6377 121.505 21.9332C121.027 21.2288 120.768 20.3989 120.76 19.5477C120.768 18.3934 121.23 17.2889 122.046 16.4727C122.863 15.6565 123.967 15.1942 125.121 15.1858ZM112.763 25.2827H110.824V19.3861C110.839 17.7411 111.499 16.1676 112.662 15.0044C113.825 13.8412 115.399 13.1811 117.044 13.1664V15.0242C115.936 15.064 114.887 15.5329 114.118 16.3317C113.35 17.1305 112.922 18.1967 112.924 19.3053L112.763 25.2827ZM102.262 13.2229C103.492 13.2071 104.699 13.5563 105.731 14.2264C106.762 14.8965 107.572 15.8575 108.057 16.9878C108.543 18.118 108.682 19.3669 108.458 20.5763C108.233 21.7858 107.655 22.9016 106.797 23.7826C105.939 24.6637 104.838 25.2704 103.635 25.526C102.432 25.7817 101.18 25.6748 100.037 25.2189C98.8946 24.763 97.913 23.9786 97.2163 22.9648C96.5196 21.951 96.1392 20.7534 96.1231 19.5234V19.4426C96.1187 17.8057 96.7616 16.2334 97.9115 15.0683C99.0614 13.9033 100.625 13.24 102.262 13.2229ZM102.262 15.0808C103.117 15.0728 103.954 15.3185 104.67 15.7867C105.385 16.2549 105.945 16.9246 106.279 17.7112C106.614 18.4977 106.707 19.3658 106.548 20.2055C106.389 21.0453 105.985 21.8191 105.386 22.4291C104.788 23.0391 104.022 23.4579 103.185 23.6324C102.348 23.807 101.479 23.7296 100.686 23.4099C99.8933 23.0903 99.2132 22.5427 98.7317 21.8366C98.2502 21.1304 97.9889 20.2973 97.9809 19.4426C97.9989 18.3053 98.4533 17.2183 99.2501 16.4064C100.047 15.5946 101.125 15.12 102.262 15.0808ZM73.1829 13.2229C74.087 13.2242 74.9804 13.4195 75.8026 13.7958C76.6248 14.172 77.3566 14.7204 77.9486 15.4039H79.5641V25.2585H77.6255V20.6543C77.6255 17.8271 76.4946 15.0808 73.1829 15.0808C72.6021 15.0306 72.0172 15.0983 71.4632 15.2797C70.9092 15.4611 70.3976 15.7525 69.9589 16.1364C69.5203 16.5204 69.1637 16.9889 68.9106 17.514C68.6574 18.0391 68.5129 18.6099 68.4857 19.1922C68.4585 19.7745 68.5491 20.3563 68.7522 20.9027C68.9553 21.4491 69.2666 21.9489 69.6675 22.372C70.0685 22.7952 70.5507 23.133 71.0854 23.3653C71.62 23.5976 72.1961 23.7195 72.779 23.7237H73.1829C74.111 23.7541 75.022 23.4694 75.7677 22.916V25.0969C74.9618 25.484 74.0767 25.6776 73.1829 25.6624C72.3643 25.6688 71.5526 25.5123 70.7951 25.2021C70.0375 24.8918 69.3493 24.4339 68.7705 23.855C68.1916 23.2762 67.7337 22.588 67.4234 21.8304C67.1132 21.0729 66.9567 20.2612 66.9631 19.4426C66.9779 17.7976 67.6379 16.2242 68.8012 15.061C69.9644 13.8977 71.5379 13.2377 73.1829 13.2229ZM155.735 13.2229C156.64 13.2242 157.533 13.4195 158.355 13.7958C159.177 14.172 159.909 14.7204 160.501 15.4039L162.117 15.4846V25.2585H160.178V20.6543C160.178 17.8271 159.047 15.0808 155.735 15.0808C155.168 15.0861 154.607 15.2031 154.085 15.4252C153.562 15.6473 153.089 15.97 152.691 16.3751C152.294 16.7801 151.98 17.2595 151.768 17.7858C151.555 18.3121 151.449 18.8751 151.454 19.4426C151.46 20.0101 151.577 20.5711 151.799 21.0933C152.021 21.6156 152.344 22.089 152.749 22.4866C153.154 22.8841 153.633 23.198 154.159 23.4102C154.686 23.6225 155.249 23.729 155.816 23.7237C156.712 23.7033 157.582 23.4227 158.32 22.916V25.0969C157.514 25.484 156.629 25.6776 155.735 25.6624C154.086 25.6624 152.504 25.0071 151.337 23.8406C150.171 22.6742 149.516 21.0922 149.516 19.4426C149.516 17.7931 150.171 16.2111 151.337 15.0446C152.504 13.8782 154.086 13.2229 155.735 13.2229ZM58.8048 12.8433C60.4209 12.8486 61.9719 13.4804 63.1318 14.6056C64.2917 15.7309 64.9702 17.2621 65.0245 18.8772H58.8048V16.9386H62.6013C62.2462 16.2648 61.7185 15.6975 61.0722 15.2947C60.4258 14.8919 59.684 14.6682 58.9227 14.6464C58.1614 14.6245 57.408 14.8054 56.7396 15.1705C56.0712 15.5355 55.5119 16.0717 55.1188 16.724C54.7257 17.3763 54.5131 18.1214 54.5027 18.8829C54.4922 19.6444 54.6843 20.395 55.0594 21.0579C55.4344 21.7207 55.9788 22.272 56.6369 22.6553C57.2951 23.0386 58.0432 23.24 58.8048 23.2391V25.1777C57.1886 25.1876 55.6318 24.5687 54.4634 23.4518C53.2951 22.3349 52.6067 20.8076 52.5438 19.1925C52.4809 17.5774 53.0483 16.0011 54.1262 14.7967C55.2041 13.5924 56.708 12.8542 58.3202 12.7383C58.4707 12.8124 58.6371 12.8484 58.8048 12.8433Z" fill="white"/>
<path d="M145.234 16.2359H147.415V25.3635H145.234V16.2359ZM106.866 6.46204H108.804V25.3635H106.866V6.46204Z" fill="white"/>
<path fill-rule="evenodd" clip-rule="evenodd" d="M45.7996 6.46204V17.609C45.7188 20.5977 47.1728 23.1826 50.5653 23.1826V25.3393C45.9611 25.3393 43.6187 21.567 43.6187 17.5283V6.46204H45.7996ZM166.236 6.46204V17.609C166.155 20.5977 167.609 23.1826 171.002 23.1826V25.3393C166.397 25.3393 164.055 21.5428 164.055 17.5848V6.46204H166.236ZM141.438 25.2827V14.1357C141.357 11.147 142.892 8.5622 146.203 8.5622V6.46204C141.599 6.46204 139.257 10.2585 139.257 14.2165V25.2827H141.438Z" fill="white"/>
<path d="M145.234 13.2472H147.415V15.105H145.234V13.2472Z" fill="white"/>
<path fill-rule="evenodd" clip-rule="evenodd" d="M87.8834 12.8433C89.5204 12.8389 91.0927 13.4817 92.2577 14.6317C93.4228 15.7816 94.0861 17.3453 94.1031 18.9822V25.3392H92.1645V19.0387C92.1698 18.4818 92.0654 17.9293 91.8572 17.4128C91.649 16.8962 91.3411 16.4258 90.9511 16.0282C90.561 15.6307 90.0965 15.3139 89.584 15.0959C89.0715 14.8779 88.5211 14.7629 87.9642 14.7576H87.8834C86.7209 14.7636 85.6065 15.2226 84.777 16.0371C83.9474 16.8515 83.4681 17.9573 83.4408 19.1195V25.3392H81.4214V15.5089H82.7946C83.3722 14.6944 84.1344 14.0283 85.0189 13.565C85.9034 13.1017 86.885 12.8543 87.8834 12.8433ZM179.402 13.2229C180.221 13.2165 181.032 13.3729 181.79 13.6832C182.547 13.9935 183.236 14.4514 183.814 15.0302C184.393 15.6091 184.851 16.2973 185.161 17.0548C185.472 17.8124 185.628 18.624 185.622 19.4426V25.3392H183.683V19.4426C183.688 18.8857 183.584 18.3332 183.376 17.8167C183.168 17.3001 182.86 16.8296 182.47 16.4321C182.08 16.0346 181.615 15.7177 181.103 15.4997C180.59 15.2817 180.04 15.1668 179.483 15.1615H179.402C178.829 15.1594 178.26 15.2708 177.73 15.4892C177.2 15.7077 176.718 16.0289 176.313 16.4343C175.907 16.8398 175.586 17.3215 175.368 17.8517C175.149 18.3818 175.038 18.95 175.04 19.5234V25.3392H173.102V6.54279H175.04V15.105C175.595 14.504 176.27 14.026 177.022 13.7018C177.773 13.3776 178.584 13.2145 179.402 13.2229Z" fill="white"/>
<path d="M9.09646 4.66212L1.89384 11.7052C1.29349 12.2913 0.817197 12.9873 0.492231 13.7536C0.167265 14.5198 0 15.3412 0 16.1707C0 17.0002 0.167265 17.8216 0.492231 18.5878C0.817197 19.3541 1.29349 20.0501 1.89384 20.6362L11.9924 30.4167C12.3204 30.7051 12.6677 30.9719 13.0319 31.2154V29.3493C12.8092 29.1315 12.5864 28.9863 12.3636 28.7684L3.60167 20.2005C3.04625 19.6643 2.60525 19.0255 2.30425 18.3213C2.00326 17.617 1.84827 16.8614 1.84827 16.0981C1.84827 15.3348 2.00326 14.5792 2.30425 13.8749C2.60525 13.1707 3.04625 12.5319 3.60167 11.9957L9.09646 6.62257V4.66212Z" fill="white"/>
<path d="M9.09646 10.1078V7.71171L4.12146 12.6492C3.16908 13.5992 2.63564 14.8766 2.63564 16.207C2.63564 17.5374 3.16908 18.8148 4.12146 19.7649L12.8834 28.3328L12.9577 28.478V22.161C13.0319 21.3623 13.0319 20.5636 13.1804 19.7649C10.433 17.514 9.09646 13.8835 9.09646 10.1078Z" fill="white"/>
<path d="M16.9037 0.00846821C15.3155 -0.0718603 13.7525 0.421502 12.5121 1.39469V3.35515C13.6276 2.31096 15.1199 1.74026 16.6638 1.76747C18.2077 1.79467 19.6781 2.41756 20.7543 3.50037L29.5163 11.9957C30.6229 13.1015 31.2426 14.5872 31.2426 16.1344C31.2426 17.6816 30.6229 19.1673 29.5163 20.2731L20.7543 28.8193C19.6227 29.8981 18.1023 30.498 16.5219 30.4893H16.3733V32.3045C17.2399 32.3413 18.1045 32.1986 18.9107 31.8858C19.7169 31.5729 20.4464 31.097 21.0513 30.4893L31.2241 20.5636C31.824 19.9847 32.3003 19.2951 32.6254 18.5348C32.9505 17.7744 33.1179 16.9585 33.1179 16.1344C33.1179 15.3103 32.9505 14.4944 32.6254 13.734C32.3003 12.9737 31.824 12.2841 31.2241 11.7052L21.1256 1.83035C19.9945 0.737211 18.4919 0.0887967 16.9037 0.00846821Z" fill="white"/>
<path d="M16.3733 21.5075V29.7632H16.5219C17.8823 29.7634 19.1886 29.242 20.1603 28.311L28.9222 19.7431C29.4242 19.2912 29.8227 18.7406 30.0914 18.1274C30.3602 17.5142 30.4932 16.8523 30.4816 16.1852C30.4719 14.8213 29.9114 13.5164 28.9222 12.5548L20.1603 3.98685C19.1735 3.05604 17.8558 2.5359 16.4847 2.5359C15.1136 2.5359 13.796 3.05604 12.8092 3.98685L12.4379 4.3499V10.086C12.3038 12.2583 12.9325 14.4102 14.22 16.1852C15.0047 14.3095 16.3569 12.7132 18.0954 11.6101C19.834 10.507 21.8758 9.9499 23.9472 10.0134V13.2809C22.3782 13.1725 20.819 13.5975 19.5336 14.484C18.2482 15.3705 17.3154 16.664 16.8931 18.1457C17.8509 18.5611 18.8899 18.7668 19.9375 18.7483V22.0158C18.7299 22.0251 17.5279 21.8537 16.3733 21.5075Z" fill="white"/>
</svg>
