<svg xmlns="http://www.w3.org/2000/svg" width="92.78" height="65.78" viewBox="0 0 92.78 65.78"><defs><style>.cls-1{fill:#1291af}.cls-2,.cls-3{fill:none;stroke:#1291af;stroke-miterlimit:10;stroke-width:3px}.cls-3{fill:#37c2e3}</style></defs><title>active-tab</title><g id="Camada_2" data-name="Camada 2"><g id="Camada_1-2" data-name="Camada 1"><path class="cls-1" d="M26.5.75a.15.15 0 0 1 .15.15v1.2a.15.15 0 0 1-.15.15H2.78a.15.15 0 0 1-.15-.15V.9a.15.15 0 0 1 .15-.15H26.5m0-.75H2.78a.9.9 0 0 0-.9.9v1.2a.9.9 0 0 0 .9.9H26.5a.9.9 0 0 0 .9-.9V.9a.9.9 0 0 0-.9-.9z"/><rect class="cls-1" x="34.02" width="25.52" height="3" rx="1.23"/><path class="cls-1" d="M90.79.5a.4.4 0 0 1 .4.4v1.2a.4.4 0 0 1-.4.4H67.07a.4.4 0 0 1-.4-.4V.9a.4.4 0 0 1 .4-.4h23.72m0-.5H67.07a.9.9 0 0 0-.9.9v1.2a.9.9 0 0 0 .9.9h23.72a.9.9 0 0 0 .9-.9V.9a.9.9 0 0 0-.9-.9z"/><rect class="cls-2" x="1.5" y="14.45" width="25.28" height="16.87" rx="1"/><rect class="cls-3" x="2" y="38.89" width="89.28" height="25.4" rx="1"/><rect class="cls-2" x="34" y="14.32" width="57.28" height="17" rx="1"/></g></g></svg>