<svg width="20" height="20" viewBox="0 0 20 20" fill="none" xmlns="http://www.w3.org/2000/svg">
<g clip-path="url(#clip0_111_12)">
<path d="M7.58417 19.7498V13.0998H5.5225V10.044H7.58417V8.72734C7.58417 5.32317 9.12417 3.74567 12.4658 3.74567C12.8 3.74567 13.2617 3.78067 13.6892 3.83151C14.0094 3.86446 14.327 3.91874 14.64 3.99401V6.76484C14.4591 6.74796 14.2775 6.73796 14.0958 6.73484C13.8923 6.72956 13.6886 6.72706 13.485 6.72734C12.8958 6.72734 12.4358 6.80734 12.0892 6.98484C11.8561 7.10177 11.6602 7.28124 11.5233 7.50317C11.3083 7.85317 11.2117 8.33234 11.2117 8.96317V10.044H14.4775L14.1558 11.7965L13.9167 13.0998H11.2117V19.9707C16.1633 19.3723 20 15.1565 20 10.044C20 4.52151 15.5225 0.0440063 10 0.0440063C4.4775 0.0440063 0 4.52151 0 10.044C0 14.734 3.22833 18.669 7.58417 19.7498Z" fill="white"/>
</g>
<defs>
<clipPath id="clip0_111_12">
<rect width="20" height="20" fill="white"/>
</clipPath>
</defs>
</svg>
