<svg width="20" height="20" viewBox="0 0 20 20" fill="none" xmlns="http://www.w3.org/2000/svg">
<g clip-path="url(#clip0_111_2)">
<path d="M5.85843 0.0700143C4.79442 0.120181 4.06784 0.290015 3.43258 0.539517C2.77525 0.795768 2.218 1.13952 1.66358 1.69594C1.10924 2.25236 0.767738 2.80994 0.513404 3.46845C0.267236 4.10495 0.100402 4.8322 0.0534016 5.89679C0.00640135 6.96138 -0.00401536 7.30363 0.00123466 10.0193C0.00640136 12.7348 0.0184014 13.0752 0.069985 14.1421C0.120819 15.2058 0.289986 15.9323 0.539571 16.5677C0.796238 17.2251 1.13957 17.7821 1.69624 18.3367C2.25283 18.8913 2.81 19.2319 3.47 19.4867C4.106 19.7325 4.83342 19.9001 5.89785 19.9467C6.96227 19.9934 7.30485 20.0042 10.0197 19.9989C12.7345 19.9938 13.0764 19.9817 14.1429 19.9311C15.2096 19.8805 15.9321 19.7101 16.5677 19.4617C17.2252 19.2045 17.7826 18.8617 18.3367 18.3049C18.8909 17.7481 19.2322 17.1901 19.4863 16.5313C19.7327 15.8953 19.9002 15.1679 19.9463 14.1042C19.993 13.0368 20.004 12.6961 19.9988 9.9809C19.9936 7.26563 19.9813 6.92521 19.9307 5.85879C19.8802 4.79237 19.7107 4.0682 19.4613 3.43236C19.2043 2.77494 18.8613 2.21836 18.305 1.66336C17.7486 1.10835 17.1901 0.767351 16.5316 0.513767C15.8951 0.267515 15.1681 0.0997645 14.1037 0.0537642C13.0393 0.00776402 12.6967 -0.0041527 9.98087 0.00118066C7.26502 0.00634736 6.92502 0.0180141 5.85843 0.0700143ZM5.97526 18.1477C5.00026 18.1053 4.47084 17.9433 4.118 17.8077C3.65084 17.6277 3.318 17.4101 2.96642 17.0618C2.61475 16.7137 2.39883 16.3797 2.21641 15.9135C2.07941 15.5607 1.91441 15.0318 1.86883 14.0568C1.81924 13.0031 1.80883 12.6867 1.80299 10.0168C1.79716 7.34705 1.80741 7.03096 1.85358 5.97679C1.89524 5.00262 2.05824 4.47262 2.19358 4.11995C2.37358 3.6522 2.59041 3.31995 2.93942 2.96861C3.28842 2.61719 3.62142 2.40078 4.088 2.21836C4.44051 2.08077 4.96926 1.91719 5.94385 1.87077C6.99843 1.82077 7.31444 1.81077 9.98387 1.80494C12.6533 1.79911 12.9701 1.80911 14.0251 1.85561C14.9993 1.89794 15.5296 2.05936 15.8818 2.19561C16.3491 2.37561 16.6818 2.59178 17.0331 2.94144C17.3846 3.29095 17.6012 3.62278 17.7836 4.09037C17.9213 4.44179 18.085 4.97037 18.131 5.94563C18.1812 7.00021 18.1926 7.31647 18.1973 9.98565C18.2022 12.6548 18.1927 12.9718 18.1465 14.0257C18.104 15.0007 17.9423 15.5303 17.8065 15.8835C17.6265 16.3505 17.4096 16.6835 17.0603 17.0347C16.7111 17.3859 16.3786 17.6023 15.9117 17.7847C15.5597 17.9221 15.0303 18.0861 14.0566 18.1325C13.0019 18.1821 12.6859 18.1925 10.0155 18.1984C7.34502 18.2042 7.02985 18.1934 5.97526 18.1477ZM14.1276 4.65537C14.1279 4.89273 14.1987 5.12464 14.3309 5.32177C14.4631 5.5189 14.6508 5.6724 14.8703 5.76284C15.0898 5.85329 15.3311 5.87662 15.5638 5.82989C15.7965 5.78316 16.0102 5.66846 16.1777 5.50031C16.3452 5.33215 16.4591 5.1181 16.505 4.88521C16.5508 4.65232 16.5266 4.41106 16.4353 4.19195C16.344 3.97284 16.1898 3.78572 15.9922 3.65425C15.7946 3.52278 15.5624 3.45287 15.3251 3.45336C15.0069 3.45403 14.702 3.58102 14.4774 3.80643C14.2529 4.03183 14.127 4.33719 14.1276 4.65537ZM4.86542 10.0101C4.87101 12.8461 7.17427 15.1398 10.0096 15.1345C12.8451 15.1291 15.1405 12.8261 15.1351 9.99006C15.1297 7.15405 12.826 4.85962 9.99012 4.8652C7.15427 4.87079 4.86009 7.17438 4.86542 10.0101ZM6.66668 10.0065C6.66538 9.34721 6.85961 8.70236 7.22479 8.15347C7.58998 7.60459 8.10973 7.17632 8.71831 6.92282C9.3269 6.66932 9.99699 6.60198 10.6438 6.72932C11.2907 6.85665 11.8853 7.17294 12.3524 7.63819C12.8195 8.10344 13.1381 8.69674 13.268 9.34309C13.3979 9.98944 13.3333 10.6598 13.0822 11.2694C12.8311 11.879 12.4049 12.4004 11.8575 12.7678C11.31 13.1351 10.666 13.3319 10.0067 13.3332C9.56894 13.3342 9.13528 13.2488 8.7305 13.0821C8.32572 12.9154 7.95774 12.6706 7.64758 12.3617C7.33743 12.0528 7.09116 11.6858 6.92286 11.2817C6.75455 10.8776 6.6675 10.4442 6.66668 10.0065Z" fill="white"/>
</g>
<defs>
<clipPath id="clip0_111_2">
<rect width="20" height="20.0002" fill="white"/>
</clipPath>
</defs>
</svg>
