<svg width="17" height="17" viewBox="0 0 17 17" fill="none" xmlns="http://www.w3.org/2000/svg">
<path d="M12.3784 10.174C12.1672 10.0686 11.1288 9.56069 10.9355 9.48995C10.7414 9.41991 10.6007 9.38525 10.4592 9.59606C10.3192 9.80616 9.91405 10.2794 9.79109 10.4195C9.66812 10.5603 9.54445 10.5772 9.33334 10.4725C9.12224 10.3664 8.4413 10.145 7.63456 9.42911C7.00694 8.87167 6.5826 8.18336 6.45963 7.97255C6.33666 7.76245 6.44684 7.64856 6.55203 7.54386C6.64728 7.44977 6.76385 7.29839 6.86904 7.17601C6.97495 7.05292 7.00978 6.9652 7.08086 6.82442C7.15123 6.68436 7.1164 6.56197 7.06309 6.45657C7.00978 6.35117 6.58757 5.31622 6.41201 4.89531C6.24 4.48572 6.06585 4.54161 5.93649 4.53453C5.81353 4.52887 5.67279 4.52746 5.53134 4.52746C5.39061 4.52746 5.16173 4.57981 4.9684 4.79062C4.77507 5.00072 4.22918 5.50935 4.22918 6.54429C4.22918 7.57852 4.98617 8.5781 5.09137 8.71887C5.19727 8.85894 6.58118 10.9826 8.70003 11.893C9.20398 12.1095 9.59704 12.2389 9.9041 12.3352C10.4102 12.4957 10.8708 12.4731 11.234 12.4186C11.6398 12.3585 12.4835 11.91 12.6598 11.4191C12.8361 10.9281 12.8361 10.5072 12.7828 10.4195C12.7302 10.3318 12.5902 10.2794 12.3784 10.174ZM8.52447 15.411H8.52162C7.26337 15.4111 6.02824 15.0744 4.94565 14.4362L4.68906 14.2848L2.03001 14.9795L2.73937 12.3988L2.57234 12.1343C1.86897 11.0196 1.49687 9.72954 1.49905 8.41327C1.49976 4.55788 4.6521 1.42122 8.52731 1.42122C10.4038 1.42122 12.168 2.14985 13.4943 3.4713C14.1487 4.11972 14.6674 4.89088 15.0204 5.74013C15.3733 6.58939 15.5535 7.49989 15.5506 8.41893C15.5485 12.2743 12.3968 15.411 8.52447 15.411ZM14.5043 2.46748C13.7212 1.68291 12.7894 1.06082 11.7629 0.637265C10.7364 0.213712 9.63566 -0.00288358 8.52447 2.8988e-05C3.86526 2.8988e-05 0.073211 3.77407 0.0710787 8.41256C0.0710787 9.89529 0.459879 11.3427 1.19981 12.6181L0 16.9779L4.48151 15.8078C5.72083 16.4798 7.1096 16.832 8.52091 16.8322H8.52447C13.183 16.8322 16.9757 13.0581 16.9779 8.41893C16.9813 7.31344 16.7644 6.21824 16.3399 5.19669C15.9153 4.17515 15.2914 3.24752 14.5043 2.46748Z" fill="white"/>
</svg>
