<svg width="12" height="12" viewBox="0 0 12 12" fill="none" xmlns="http://www.w3.org/2000/svg"><path d="M6 0a5.997 5.997 0 1 0-1.454 11.815.876.876 0 0 1-.046-.291v-1.026h-.754c-.41 0-.776-.176-.953-.505-.196-.364-.23-.921-.717-1.263-.145-.113-.034-.242.132-.225.307.087.563.298.802.611.24.314.352.385.799.385.216 0 .54-.013.845-.061.164-.416.447-.8.794-.981-1.998-.205-2.952-1.2-2.952-2.549 0-.581.248-1.143.668-1.617-.138-.47-.311-1.428.053-1.793.9 0 1.443.583 1.573.74.449-.153.94-.24 1.457-.24a4.51 4.51 0 0 1 1.462.241c.129-.156.673-.741 1.574-.741.366.365.19 1.328.05 1.797.418.473.665 1.033.665 1.613 0 1.348-.952 2.342-2.947 2.549.548.286.949 1.091.949 1.697v1.367c0 .053-.011.09-.018.135A5.997 5.997 0 0 0 6 0z" fill="#000"/></svg>