<svg xmlns="http://www.w3.org/2000/svg" width="14" height="11.26" viewBox="0 0 14 11.26"><defs><style>.cls-1{fill:#252525;}</style></defs><title>icon-components</title><g id="Camada_2" data-name="Camada 2"><g id="Camada_1-2" data-name="Camada 1"><path class="cls-1" d="M6.22,4.93H3.59V3.05A3.4,3.4,0,0,0,3.5,2a.36.36,0,0,0-.37-.2.39.39,0,0,0-.41.25,3.84,3.84,0,0,0-.09,1.06v5a3.62,3.62,0,0,0,.09,1,.37.37,0,0,0,.39.24.37.37,0,0,0,.39-.24,4.22,4.22,0,0,0,.09-1.13V6.7H6.22v.42A8.74,8.74,0,0,1,6,9.5a2.42,2.42,0,0,1-1,1.23,3.16,3.16,0,0,1-1.88.53,3.74,3.74,0,0,1-1.9-.44,2.22,2.22,0,0,1-1-1.24A8.79,8.79,0,0,1,0,7.2V4A14.7,14.7,0,0,1,.08,2.29,2.41,2.41,0,0,1,.52,1.16a2.55,2.55,0,0,1,1-.85A3.5,3.5,0,0,1,3.07,0,3.55,3.55,0,0,1,5,.48a2.28,2.28,0,0,1,1,1.2,7.54,7.54,0,0,1,.24,2.23Z"/><path class="cls-1" d="M12.8,5.29V7.46a9.37,9.37,0,0,1-.11,1.75,2.41,2.41,0,0,1-.48,1,2.27,2.27,0,0,1-1,.72,3.63,3.63,0,0,1-1.33.23A4.54,4.54,0,0,1,8.51,11a2,2,0,0,1-.9-.59,2.5,2.5,0,0,1-.46-1A7.73,7.73,0,0,1,7,7.75V5.48a6.1,6.1,0,0,1,.25-1.93,2.22,2.22,0,0,1,.9-1.11A3,3,0,0,1,9.83,2a3.62,3.62,0,0,1,1.46.27,2.37,2.37,0,0,1,.94.7,2.54,2.54,0,0,1,.45.9A5.94,5.94,0,0,1,12.8,5.29Zm-2.52-.67a3.44,3.44,0,0,0-.07-.86.27.27,0,0,0-.29-.17.29.29,0,0,0-.3.17,2.87,2.87,0,0,0-.08.86v4a2.73,2.73,0,0,0,.08.82.29.29,0,0,0,.29.19.29.29,0,0,0,.3-.18,2.63,2.63,0,0,0,.07-.74Z"/><path class="cls-1" d="M13.48,2.64c-1.21,0-4.25-3.2-6.52,0-.16.23-.67-.52,0-1.37,1.36-1.71,5.09-1.51,6.52,0C14.21,2.05,14.13,2.67,13.48,2.64Z"/></g></g></svg>