<?xml version="1.0" encoding="UTF-8"?>
<!DOCTYPE svg PUBLIC "-//W3C//DTD SVG 1.1//EN" "http://www.w3.org/Graphics/SVG/1.1/DTD/svg11.dtd">
<!-- Creator: CorelDRAW X8 -->
<svg xmlns="http://www.w3.org/2000/svg" xml:space="preserve" width="68.321mm" height="31.727mm" version="1.1" style="shape-rendering:geometricPrecision; text-rendering:geometricPrecision; image-rendering:optimizeQuality; fill-rule:evenodd; clip-rule:evenodd"
viewBox="0 0 6227 2892"
 xmlns:xlink="http://www.w3.org/1999/xlink">
 <defs>
  <style type="text/css">
   <![CDATA[
    .fil0 {fill:white}
    .fil1 {fill:white;fill-rule:nonzero}
   ]]>
  </style>
 </defs>
 <g id="Camada_x0020_1">
  <metadata id="CorelCorpID_0Corel-Layer"/>
  <g id="_2210188390688">
   <path class="fil0" d="M2598 518l312 -311 0 87 -239 239c-51,50 -76,116 -76,182 0,67 25,133 76,183l379 379c9,9 19,18 29,25l0 83c-16,-10 -30,-22 -44,-35l-437 -438c-108,-108 -108,-285 0,-394zm312 -177l0 106c-1,166 59,327 177,427 -5,34 -8,70 -8,106l0 279c-2,-2 -4,-4 -6,-6l-379 -379c-44,-43 -65,-101 -65,-159 0,-57 21,-115 65,-159l216 -215zm147 -279c109,-89 271,-82 372,19l437 437c109,109 109,286 0,394l-437 438c-55,55 -129,82 -202,81l0 -79 5 0c66,0 133,-25 183,-75l379 -379c50,-50 75,-116 75,-183 0,-66 -25,-132 -75,-182l-379 -379c-50,-51 -117,-76 -183,-76 -63,0 -126,23 -175,69l0 -85zm170 1257l0 -49 0 -294c0,-8 0,-16 0,-24 47,15 99,24 155,24l0 -144c-50,0 -94,-9 -132,-24 42,-126 141,-216 305,-216l0 -146c-210,0 -351,115 -422,273 -54,-70 -78,-165 -76,-268l0 -258 16 -16c44,-43 102,-65 159,-65 58,0 116,22 159,65l379 379c44,44 66,102 66,159 0,58 -22,116 -66,159l-379 379c-43,44 -101,66 -159,66l-5 0z"/>
   <g>
    <path class="fil0" d="M5979 1766c137,0 248,111 248,248 0,137 -111,247 -248,247 -136,0 -247,-110 -247,-247 0,-137 111,-248 247,-248zm0 76c95,0 172,77 172,172 0,95 -77,172 -172,172 -95,0 -172,-77 -172,-172 0,-95 77,-172 172,-172z"/>
    <path class="fil0" d="M3246 1772c136,0 247,111 247,247 0,137 -111,248 -247,248 -137,0 -248,-111 -248,-248 0,-136 111,-247 248,-247zm0 75c95,0 172,77 172,172 0,95 -77,172 -172,172 -95,0 -173,-77 -173,-172 0,-95 78,-172 173,-172z"/>
    <path class="fil0" d="M2751 2248l-78 0 1 -235c3,-135 108,-244 246,-247l0 75c-92,4 -163,79 -165,172l-4 235z"/>
    <path class="fil0" d="M2336 1769c137,0 248,110 248,247 0,137 -111,248 -248,248 -137,0 -247,-111 -247,-248 0,-137 110,-247 247,-247zm0 75c95,0 172,77 172,172 0,95 -77,172 -172,172 -95,0 -172,-77 -172,-172 0,-95 77,-172 172,-172z"/>
    <path class="fil0" d="M1178 1769c76,0 144,34 190,88l64 0 0 392 -78 -1 0 -182c0,-113 -44,-222 -176,-222 -95,0 -172,77 -172,172 0,95 77,172 172,172 39,0 76,-13 104,-35l0 88c-31,14 -67,23 -104,23 -137,0 -248,-111 -248,-248 0,-137 111,-247 248,-247z"/>
    <path class="fil0" d="M4462 1769c76,0 144,34 190,88l64 3 0 389 -77 0 -1 -183c0,-113 -44,-222 -176,-222 -95,0 -172,77 -172,172 0,95 77,172 172,172 39,0 75,-13 104,-35l0 88c-31,14 -67,23 -104,23 -137,0 -248,-111 -248,-248 0,-137 111,-247 248,-247z"/>
    <path class="fil0" d="M603 1753c135,0 245,108 247,243l-75 0 0 0 -172 0 0 -77 152 0c-29,-54 -86,-91 -152,-91 -95,0 -172,77 -172,172 0,95 77,172 172,172l0 0 0 76 0 0c-137,0 -248,-111 -248,-248 0,-137 111,-247 248,-247z"/>
    <rect class="fil0" x="4046" y="1888" width="87.1986" height="362.433"/>
    <rect class="fil0" transform="matrix(1.74633E-14 -0.659375 0.237711 6.29566E-15 3731.86 1844.19)" width="118" height="992"/>
    <rect class="fil0" x="2517" y="1497" width="77.5112" height="751.735"/>
    <path class="fil0" d="M87 1498l0 445c-3,120 56,223 190,223l0 84c-183,0 -277,-151 -276,-310l-1 -442 87 0z"/>
    <path class="fil0" d="M4882 1498l0 444c-2,120 56,223 190,223l0 85c-183,0 -277,-151 -276,-310l0 -442 86 0z"/>
    <path class="fil0" d="M3894 2248l0 -444c-3,-120 56,-223 190,-223l0 -85c-183,0 -277,151 -276,310l-1 442 87 0z"/>
    <rect class="fil0" x="4046" y="1769" width="87.1986" height="74.1556"/>
    <path class="fil0" d="M1763 1754c137,0 247,110 247,247 0,83 0,166 0,249l-77 0c0,-83 0,-167 0,-250 0,-95 -75,-171 -170,-171 -95,0 -175,78 -175,173l-1 173 0 74 -78 0 1 -391 53 0c37,-66 127,-104 200,-104z"/>
    <path class="fil0" d="M5405 1769c137,0 248,111 248,247 0,4 -1,8 -1,12l1 0 0 19 0 84 0 118 -78 0 0 -234c0,-95 -75,-171 -170,-171 -95,0 -175,78 -175,173l-1 114 0 0 0 119 -78 0 0 -119 0 -274 0 -356 78 0 0 341c45,-45 107,-73 176,-73z"/>
   </g>
   <path class="fil1" d="M2045 2529l0 283 -26 0 0 -35c-11,13 -23,23 -37,30 -13,7 -28,10 -44,10 -29,0 -54,-10 -74,-31 -21,-21 -31,-46 -31,-76 0,-30 10,-55 31,-76 21,-20 45,-31 74,-31 17,0 32,4 46,11 13,7 25,18 35,32l0 -117 26 0zm-105 100c-14,0 -28,3 -40,10 -12,7 -22,17 -29,30 -8,13 -11,27 -11,41 0,15 3,28 11,41 7,14 17,24 29,31 13,7 26,11 40,11 14,0 28,-4 41,-11 13,-7 23,-17 30,-29 6,-13 10,-26 10,-42 0,-23 -8,-43 -23,-59 -16,-16 -35,-23 -58,-23zm456 116l22 11c-7,14 -15,26 -25,34 -9,9 -20,16 -32,20 -12,5 -25,7 -40,7 -34,0 -60,-11 -79,-33 -19,-21 -28,-46 -28,-73 0,-26 8,-49 24,-69 20,-26 47,-39 81,-39 35,0 63,13 84,40 14,18 22,41 22,69l-184 0c0,24 8,43 23,58 14,15 33,23 54,23 11,0 21,-2 31,-5 9,-4 18,-9 25,-15 7,-6 14,-15 22,-28zm0 -55c-3,-14 -8,-26 -15,-34 -7,-8 -16,-15 -27,-20 -11,-5 -22,-8 -35,-8 -20,0 -37,7 -51,19 -11,10 -19,24 -24,43l152 0zm299 -60l-16 18c-14,-14 -28,-21 -42,-21 -8,0 -15,3 -21,9 -7,5 -10,12 -10,19 0,7 3,13 8,19 5,7 15,14 31,22 20,10 33,20 40,29 7,10 10,20 10,32 0,17 -5,31 -17,43 -12,11 -27,17 -44,17 -12,0 -23,-2 -34,-8 -11,-5 -20,-12 -27,-21l17 -19c13,16 27,23 43,23 10,0 19,-3 26,-10 8,-7 11,-15 11,-24 0,-7 -2,-14 -7,-20 -5,-6 -16,-13 -33,-21 -18,-10 -31,-19 -37,-28 -7,-10 -10,-20 -10,-32 0,-15 5,-28 15,-39 11,-10 24,-15 41,-15 18,0 37,9 56,27zm175 -106c6,0 11,3 15,7 4,4 6,9 6,15 0,6 -2,11 -6,15 -4,5 -9,7 -15,7 -6,0 -11,-2 -15,-7 -5,-4 -7,-9 -7,-15 0,-6 2,-11 7,-15 4,-4 9,-7 15,-7zm-13 84l26 0 0 204 -26 0 0 -204zm376 0l26 0 0 162c0,29 -3,50 -8,63 -7,19 -18,33 -35,43 -17,11 -38,16 -62,16 -17,0 -33,-3 -47,-8 -14,-5 -25,-11 -34,-20 -8,-8 -17,-20 -24,-37l29 0c7,14 17,24 30,31 12,6 27,9 45,9 18,0 33,-3 45,-10 13,-6 22,-14 27,-24 5,-11 8,-27 8,-49l0 -11c-10,13 -22,22 -37,29 -14,7 -29,10 -45,10 -19,0 -36,-5 -53,-14 -16,-9 -29,-22 -38,-37 -9,-16 -14,-33 -14,-52 0,-19 5,-37 15,-53 9,-16 22,-29 38,-39 17,-9 34,-14 53,-14 15,0 29,3 43,10 13,6 25,16 38,31l0 -36zm-78 21c-15,0 -28,3 -41,10 -13,7 -23,17 -30,30 -7,13 -11,26 -11,41 0,23 7,41 22,56 15,14 35,22 59,22 24,0 43,-8 58,-22 14,-15 22,-34 22,-57 0,-16 -4,-29 -10,-41 -7,-12 -17,-22 -29,-29 -12,-7 -26,-10 -40,-10zm279 -21l26 0 0 37c10,-14 22,-25 35,-32 13,-6 27,-10 42,-10 15,0 28,4 40,12 12,8 21,18 27,31 5,13 8,34 8,61l0 105 -26 0 0 -97c0,-23 -1,-39 -3,-47 -3,-13 -9,-24 -18,-30 -9,-7 -20,-11 -34,-11 -16,0 -30,6 -42,16 -13,11 -21,24 -25,39 -3,10 -4,29 -4,55l0 75 -26 0 0 -204zm525 137l22 11c-7,14 -15,26 -25,34 -9,9 -20,16 -32,20 -12,5 -25,7 -41,7 -33,0 -59,-11 -78,-33 -19,-21 -28,-46 -28,-73 0,-26 8,-49 24,-69 20,-26 47,-39 81,-39 35,0 63,13 84,40 14,18 22,41 22,69l-184 0c0,24 8,43 23,58 14,15 33,23 54,23 11,0 21,-2 31,-5 9,-4 18,-9 25,-15 7,-6 14,-15 22,-28zm0 -55c-3,-14 -8,-26 -15,-34 -7,-8 -16,-15 -27,-20 -11,-5 -22,-8 -35,-8 -20,0 -37,7 -52,19 -10,10 -18,24 -24,43l153 0zm187 -82l26 0 0 30c8,-12 17,-20 26,-26 9,-6 18,-9 28,-9 7,0 15,2 23,7l-14 22c-5,-2 -10,-3 -14,-3 -9,0 -17,3 -25,10 -8,7 -14,19 -19,34 -3,11 -5,35 -5,70l0 69 -26 0 0 -204z"/>
  </g>
 </g>
</svg>
