<svg xmlns="http://www.w3.org/2000/svg" width="193.65" height="89.94" viewBox="0 0 193.65 89.94"><defs><style>.cls-1,.cls-2{fill:#fff;}.cls-1{fill-rule:evenodd;}</style></defs><title>logo</title><g id="Camada_2" data-name="Camada 2"><g id="Camada_1-2" data-name="Camada 1"><g id="Camada_1-3" data-name="Camada_1"><g id="_2210188390688" data-name=" 2210188390688"><path class="cls-1" d="M80.79,16.11l9.7-9.67V9.15l-7.43,7.43a8,8,0,0,0,0,11.35L94.85,39.71a7.29,7.29,0,0,0,.9.78v2.58A8.86,8.86,0,0,1,94.38,42L80.79,28.36A8.7,8.7,0,0,1,80.79,16.11Zm9.7-5.5V13.9c0,5.17,1.84,10.17,5.51,13.28a22.28,22.28,0,0,0-.25,3.3v8.67L95.56,39,83.78,27.18a6.85,6.85,0,0,1-2-4.94,7,7,0,0,1,2-4.95Zm4.58-8.68a8.66,8.66,0,0,1,11.56.59l13.59,13.59a8.65,8.65,0,0,1,0,12.25L106.63,42a8.71,8.71,0,0,1-6.28,2.52V42.05h.16a8,8,0,0,0,5.69-2.34L118,27.93a8.08,8.08,0,0,0,0-11.35L106.2,4.79a8,8,0,0,0-11.13-.22ZM100.35,41V29.61a16,16,0,0,0,4.82.74V25.88a11,11,0,0,1-4.1-.75,9.33,9.33,0,0,1,9.48-6.72V13.87a13.77,13.77,0,0,0-13.12,8.49A13.06,13.06,0,0,1,95.07,14V6l.49-.49a7.1,7.1,0,0,1,5-2,7,7,0,0,1,4.94,2l11.79,11.78a7,7,0,0,1,2.05,4.95,6.88,6.88,0,0,1-2.05,4.94L105.45,39A6.87,6.87,0,0,1,100.51,41Z"/><path class="cls-1" d="M185.93,54.92a7.7,7.7,0,1,1-7.68,7.71A7.72,7.72,0,0,1,185.93,54.92Zm0,2.36a5.35,5.35,0,1,1-5.35,5.35A5.35,5.35,0,0,1,185.93,57.28Z"/><path class="cls-1" d="M100.94,55.11a7.7,7.7,0,1,1-7.71,7.68A7.69,7.69,0,0,1,100.94,55.11Zm0,2.33a5.35,5.35,0,1,1-5.38,5.35A5.34,5.34,0,0,1,100.94,57.44Z"/><path class="cls-1" d="M85.55,69.91H83.12l0-7.31a7.76,7.76,0,0,1,7.65-7.68v2.33a5.4,5.4,0,0,0-5.14,5.35Z"/><path class="cls-1" d="M72.64,55A7.7,7.7,0,1,1,65,62.7,7.7,7.7,0,0,1,72.64,55Zm0,2.34A5.35,5.35,0,1,1,67.3,62.7,5.34,5.34,0,0,1,72.64,57.35Z"/><path class="cls-1" d="M36.63,55a7.73,7.73,0,0,1,5.91,2.74h2V69.94l-2.42,0V64.25c0-3.51-1.37-6.9-5.48-6.9a5.35,5.35,0,1,0,0,10.69A5.28,5.28,0,0,0,39.87,67v2.73a7.92,7.92,0,0,1-3.24.72,7.7,7.7,0,1,1,0-15.4Z"/><path class="cls-1" d="M138.76,55a7.74,7.74,0,0,1,5.91,2.74l2,.09v12.1h-2.4l0-5.69c0-3.51-1.37-6.9-5.47-6.9A5.35,5.35,0,1,0,142,67v2.73a7.84,7.84,0,0,1-3.23.72,7.7,7.7,0,1,1,0-15.4Z"/><path class="cls-1" d="M18.75,54.52a7.67,7.67,0,0,1,7.68,7.55H18.75V59.68h4.73a5.35,5.35,0,1,0-4.73,7.87h0v2.36h0a7.7,7.7,0,1,1,0-15.39Z"/><rect class="cls-2" x="125.82" y="58.72" width="2.71" height="11.27"/><rect class="cls-2" x="78.27" y="46.56" width="2.41" height="23.38"/><path class="cls-1" d="M2.71,46.59V60.43c-.1,3.73,1.74,6.93,5.9,6.93V70C2.92,70,0,65.28,0,60.33L0,46.59Z"/><path class="cls-1" d="M151.82,46.59v13.8c-.06,3.74,1.74,6.94,5.91,6.94V70c-5.69,0-8.62-4.69-8.59-9.64V46.59Z"/><path class="cls-1" d="M121.09,69.91V56.1c-.09-3.73,1.75-6.93,5.91-6.93V46.52c-5.69,0-8.61,4.7-8.58,9.65l0,13.74Z"/><rect class="cls-2" x="125.82" y="55.01" width="2.71" height="2.31"/><path class="cls-1" d="M54.83,54.55a7.66,7.66,0,0,1,7.68,7.68V70h-2.4V62.2a5.26,5.26,0,0,0-5.28-5.32,5.46,5.46,0,0,0-5.45,5.38l0,5.38v2.3H46.93l0-12.16h1.65C49.76,55.73,52.56,54.55,54.83,54.55Z"/><path class="cls-1" d="M168.08,55a7.72,7.72,0,0,1,7.72,7.69c0,.12,0,.24,0,.37h0v6.87h-2.43V62.66a5.26,5.26,0,0,0-5.29-5.31,5.45,5.45,0,0,0-5.44,5.38l0,3.54h0V70h-2.43V46.68h2.43v10.6A7.75,7.75,0,0,1,168.08,55Z"/><path class="cls-2" d="M63.59,78.65v8.8h-.8V86.36a3.58,3.58,0,0,1-1.15.93,2.85,2.85,0,0,1-1.37.32,3.07,3.07,0,0,1-2.3-1,3.37,3.37,0,0,1,0-4.73,3.22,3.22,0,0,1,2.3-1,3.11,3.11,0,0,1,1.43.34,3.31,3.31,0,0,1,1.09,1V78.65Zm-3.26,3.11A2.37,2.37,0,0,0,58.18,83a2.48,2.48,0,0,0-.34,1.28,2.38,2.38,0,0,0,.34,1.27,2.26,2.26,0,0,0,.91,1,2.63,2.63,0,0,0,1.24.34,2.74,2.74,0,0,0,1.27-.34,2.35,2.35,0,0,0,.94-.91,3,3,0,0,0,.31-1.3,2.61,2.61,0,0,0-.72-1.84A2.43,2.43,0,0,0,60.33,81.76Zm14.18,3.61.68.34a3.09,3.09,0,0,1-.77,1.06,2.59,2.59,0,0,1-1,.62,3.26,3.26,0,0,1-1.24.22,3.08,3.08,0,0,1-2.46-1,3.3,3.3,0,0,1-.87-2.27,3.33,3.33,0,0,1,.75-2.15A3,3,0,0,1,72.12,81a3.14,3.14,0,0,1,2.61,1.24,3.45,3.45,0,0,1,.68,2.15H69.69a2.4,2.4,0,0,0,.72,1.8,2.22,2.22,0,0,0,1.67.72,3.08,3.08,0,0,0,1-.16,3.34,3.34,0,0,0,.78-.46A4.11,4.11,0,0,0,74.51,85.37Zm0-1.71A2.31,2.31,0,0,0,74,82.6,2.25,2.25,0,0,0,73.2,82a2.45,2.45,0,0,0-1.08-.25,2.4,2.4,0,0,0-1.59.59,2.67,2.67,0,0,0-.75,1.34Zm9.3-1.87-.5.56A1.85,1.85,0,0,0,82,81.7a.9.9,0,0,0-.65.28.69.69,0,0,0-.31.59.91.91,0,0,0,.25.59,2.72,2.72,0,0,0,1,.68,3.61,3.61,0,0,1,1.25.9,1.67,1.67,0,0,1,.31,1,1.81,1.81,0,0,1-.53,1.34,2,2,0,0,1-1.37.53,2.23,2.23,0,0,1-1.06-.25A2.29,2.29,0,0,1,80,86.7l.53-.59a1.68,1.68,0,0,0,1.34.72,1.14,1.14,0,0,0,.81-.31.94.94,0,0,0,.34-.75.91.91,0,0,0-.22-.62,2.9,2.9,0,0,0-1-.65,3.45,3.45,0,0,1-1.15-.88,1.62,1.62,0,0,1-.31-1,1.73,1.73,0,0,1,.46-1.21A1.8,1.8,0,0,1,82.07,81,2.6,2.6,0,0,1,83.81,81.79Zm5.44-3.3a.69.69,0,0,1,.47.22.66.66,0,0,1,.18.47.63.63,0,0,1-.18.46.68.68,0,0,1-1.15-.46.58.58,0,0,1,.21-.47A.69.69,0,0,1,89.25,78.49Zm-.4,2.62h.8v6.34h-.8Zm11.69,0h.81v5a5.93,5.93,0,0,1-.25,2A2.46,2.46,0,0,1,100,89.44a3.51,3.51,0,0,1-1.93.5,4.51,4.51,0,0,1-1.46-.25,2.83,2.83,0,0,1-1.06-.62,3.46,3.46,0,0,1-.74-1.15h.9a2.21,2.21,0,0,0,.93,1,3.09,3.09,0,0,0,1.4.28,2.71,2.71,0,0,0,1.4-.31,1.73,1.73,0,0,0,.84-.75,3.67,3.67,0,0,0,.25-1.52v-.34A3.27,3.27,0,0,1,98,87.45,3.45,3.45,0,0,1,96.34,87a3.16,3.16,0,0,1-1.62-2.76,3.1,3.1,0,0,1,.47-1.65,3.34,3.34,0,0,1,1.18-1.21A3.45,3.45,0,0,1,98,81a2.89,2.89,0,0,1,1.34.31,3.71,3.71,0,0,1,1.18,1Zm-2.43.65a2.54,2.54,0,0,0-1.27.31,2.2,2.2,0,0,0-.93.93,2.62,2.62,0,0,0-.35,1.28A2.32,2.32,0,0,0,96.25,86a2.63,2.63,0,0,0,1.83.68A2.58,2.58,0,0,0,99.89,86a2.55,2.55,0,0,0,.68-1.77,2.72,2.72,0,0,0-.31-1.28,2.59,2.59,0,0,0-.9-.9A2.47,2.47,0,0,0,98.11,81.76Zm8.68-.65h.81v1.15a3.21,3.21,0,0,1,1.09-1A3,3,0,0,1,110,81a2.19,2.19,0,0,1,1.25.37,2.32,2.32,0,0,1,.84,1,5.75,5.75,0,0,1,.25,1.89v3.27h-.81v-3a6.69,6.69,0,0,0-.1-1.46,1.5,1.5,0,0,0-.56-.93,1.63,1.63,0,0,0-1-.34,2,2,0,0,0-1.31.49,2.45,2.45,0,0,0-.78,1.22,7.51,7.51,0,0,0-.12,1.71v2.33h-.81Zm16.33,4.26.68.34a3.25,3.25,0,0,1-.78,1.06,2.63,2.63,0,0,1-1,.62,3.37,3.37,0,0,1-1.28.22,3,3,0,0,1-2.42-1,3.3,3.3,0,0,1-.87-2.27,3.38,3.38,0,0,1,.74-2.15A3,3,0,0,1,120.72,81a3.11,3.11,0,0,1,2.61,1.24,3.4,3.4,0,0,1,.69,2.15H118.3a2.39,2.39,0,0,0,.71,1.8,2.26,2.26,0,0,0,1.68.72,3.07,3.07,0,0,0,1-.16,3.34,3.34,0,0,0,.78-.46A3.8,3.8,0,0,0,123.12,85.37Zm0-1.71A2.15,2.15,0,0,0,121.81,82a2.46,2.46,0,0,0-1.09-.25,2.56,2.56,0,0,0-1.62.59,3.1,3.1,0,0,0-.74,1.34Zm5.81-2.55h.81V82a3,3,0,0,1,.81-.81,1.5,1.5,0,0,1,.87-.28,1.28,1.28,0,0,1,.71.22l-.43.68a1.28,1.28,0,0,0-.44-.09,1.1,1.1,0,0,0-.77.31,2.36,2.36,0,0,0-.59,1.06,9.62,9.62,0,0,0-.16,2.17v2.15h-.81Z"/></g></g></g></g></svg>