<svg xmlns="http://www.w3.org/2000/svg" width="193.6" height="89.93" viewBox="0 0 193.6 89.93"><defs><style>.cls-1,.cls-2{fill:#fff;}.cls-1{fill-rule:evenodd;}</style></defs><title>logo</title><g id="Camada_2" data-name="Camada 2"><g id="Camada_1-2" data-name="Camada 1"><g id="Camada_1-2-2" data-name="Camada 1-2"><g id="Camada_1-3" data-name="Camada 1-3"><path class="cls-1" d="M80.8,16.13l9.7-9.7v2.7l-7.4,7.4a7.94,7.94,0,0,0,0,11.3h0l11.8,11.8c.3.3.6.5.9.8V43a13.44,13.44,0,0,1-1.4-1.1L80.8,28.43A8.69,8.69,0,0,1,80.8,16.13Zm9.7-5.5v3.3c0,5.2,1.8,10.2,5.5,13.3-.2,1.1-.2,2.2-.3,3.3v8.7l-.1-.2L83.8,27.23a7,7,0,0,1,0-9.8Zm4.6-8.7a8.73,8.73,0,0,1,11.6.6l13.6,13.6a8.57,8.57,0,0,1,0,12.2h0L106.6,42a8.29,8.29,0,0,1-6.3,2.5V42h.2a8.1,8.1,0,0,0,5.7-2.3L118,27.93a8.15,8.15,0,0,0,0-11.4L106.2,4.83a7.88,7.88,0,0,0-11.1-.2ZM100.3,41V29.63a15.94,15.94,0,0,0,4.8.7v-4.5A9.68,9.68,0,0,1,101,25a9.19,9.19,0,0,1,9.5-6.7v-4.5a13.69,13.69,0,0,0-13.1,8.5,13.15,13.15,0,0,1-2.4-8.4V6l.5-.5a7.13,7.13,0,0,1,9.9,0l11.8,11.8a7.12,7.12,0,0,1,2.1,5,6.51,6.51,0,0,1-2.1,4.9L105.4,39a7,7,0,0,1-4.9,2Z"/><path class="cls-1" d="M185.9,54.93a7.7,7.7,0,1,1-7.7,7.7h0A7.84,7.84,0,0,1,185.9,54.93Zm0,2.4a5.35,5.35,0,1,1-5.4,5.4,5.51,5.51,0,0,1,5.4-5.4Z"/><path class="cls-1" d="M100.9,55.13a7.7,7.7,0,1,1-7.7,7.7h0a7.7,7.7,0,0,1,7.7-7.7Zm0,2.3a5.35,5.35,0,1,1-5.4,5.4,5.44,5.44,0,0,1,5.4-5.4Z"/><path class="cls-1" d="M85.6,69.93H83.2v-7.3a7.77,7.77,0,0,1,7.7-7.7v2.3a5.29,5.29,0,0,0-5.1,5.3Z"/><path class="cls-1" d="M72.6,55a7.7,7.7,0,1,1-7.6,7.8v-.1A7.68,7.68,0,0,1,72.6,55Zm0,2.3a5.35,5.35,0,1,1-5.3,5.4,5.49,5.49,0,0,1,5.3-5.4Z"/><path class="cls-1" d="M36.6,55a7.82,7.82,0,0,1,5.9,2.7h2v12.2H42.1v-5.7c0-3.5-1.4-6.9-5.5-6.9A5.36,5.36,0,1,0,36.1,68h.5a5.09,5.09,0,0,0,3.2-1v2.7a7.11,7.11,0,0,1-3.2.7,7.64,7.64,0,0,1-7.7-7.7A7.77,7.77,0,0,1,36.6,55Z"/><path class="cls-1" d="M138.8,55a7.82,7.82,0,0,1,5.9,2.7l2,.1v12.1h-2.4v-5.7c0-3.5-1.4-6.9-5.5-6.9a5.35,5.35,0,1,0,.1,10.7,5.71,5.71,0,0,0,3.1-1v2.7a7.11,7.11,0,0,1-3.2.7,7.7,7.7,0,0,1,0-15.4Z"/><path class="cls-1" d="M18.8,54.53A7.73,7.73,0,0,1,26.5,62H18.8v-2.4h4.7a5.32,5.32,0,1,0-4.7,7.8h0v2.4h0a7.71,7.71,0,0,1-.6-15.4A1.27,1.27,0,0,0,18.8,54.53Z"/><rect class="cls-2" x="125.8" y="58.73" width="2.7" height="11.3"/><rect class="cls-2" x="78.3" y="46.63" width="2.4" height="23.4"/><path class="cls-1" d="M2.7,46.63v13.8c-.1,3.7,1.7,6.9,5.9,6.9V70C2.9,70,0,65.33,0,60.33V46.63Z"/><path class="cls-1" d="M151.8,46.63v13.8c-.1,3.7,1.7,6.9,5.9,6.9V70c-5.7,0-8.6-4.7-8.6-9.6V46.63Z"/><path class="cls-1" d="M121.1,69.93V56.13c-.1-3.7,1.8-6.9,5.9-6.9v-2.6c-5.7,0-8.6,4.7-8.6,9.6v13.7Z"/><rect class="cls-2" x="125.8" y="55.03" width="2.7" height="2.3"/><path class="cls-1" d="M54.8,54.53a7.68,7.68,0,0,1,7.7,7.6h0V70H60.1v-7.8a5.25,5.25,0,0,0-5.2-5.3h-.1a5.53,5.53,0,0,0-5.5,5.4V70H46.8V57.83h1.7A7.83,7.83,0,0,1,54.8,54.53Z"/><path class="cls-1" d="M168.1,55a7.64,7.64,0,0,1,7.7,7.7v.4h0V70h-2.4v-7.3a5.25,5.25,0,0,0-5.2-5.3h-.1a5.38,5.38,0,0,0-5.4,5.4v3.5h0V70h-2.4V46.73h2.4v10.6A7.25,7.25,0,0,1,168.1,55Z"/><path class="cls-2" d="M63.6,78.73v8.8h-.8v-1.1a2.73,2.73,0,0,1-1.2.9,3.19,3.19,0,0,1-1.4.3,3.26,3.26,0,0,1-2.3-1,3.32,3.32,0,0,1,0-4.7,3.26,3.26,0,0,1,2.3-1,3.19,3.19,0,0,1,1.4.3,3.46,3.46,0,0,1,1.1,1v-3.6h.9Zm-3.3,3.1a2.36,2.36,0,0,0-2.5,2.5,3.08,3.08,0,0,0,.3,1.3,2.19,2.19,0,0,0,.9,1,2.66,2.66,0,0,0,1.2.3,3.08,3.08,0,0,0,1.3-.3,2,2,0,0,0,.9-.9,2.77,2.77,0,0,0,.3-1.3,2.41,2.41,0,0,0-.7-1.8A1.61,1.61,0,0,0,60.3,81.83Zm14.2,3.6.7.3a2.84,2.84,0,0,1-.8,1.1,2.07,2.07,0,0,1-1,.6,2.54,2.54,0,0,1-1.2.2,3.11,3.11,0,0,1-2.5-1,3.17,3.17,0,0,1-.9-2.3,3.72,3.72,0,0,1,.8-2.2,3,3,0,0,1,2.5-1.2,3.22,3.22,0,0,1,2.6,1.2,3.41,3.41,0,0,1,.7,2.2H69.7a2.41,2.41,0,0,0,.7,1.8,2.06,2.06,0,0,0,1.7.7,3.55,3.55,0,0,0,1-.2,3.51,3.51,0,0,0,.8-.5A2.17,2.17,0,0,0,74.5,85.43Zm0-1.7a3.7,3.7,0,0,0-.5-1.1,1.56,1.56,0,0,0-.8-.6,2,2,0,0,0-1.1-.3,2.45,2.45,0,0,0-1.6.6,3.53,3.53,0,0,0-.8,1.3Zm9.3-1.9-.5.6a1.71,1.71,0,0,0-1.3-.7,1.08,1.08,0,0,0-.7.3.71.71,0,0,0-.3.6.86.86,0,0,0,.3.6,3.59,3.59,0,0,0,1,.7,3.81,3.81,0,0,1,1.3.9,1.69,1.69,0,0,1,.3,1,1.9,1.9,0,0,1-.5,1.3,2.39,2.39,0,0,1-1.4.5,2.28,2.28,0,0,1-1.1-.3,2,2,0,0,1-.9-.7l.5-.6a1.71,1.71,0,0,0,1.3.7,1,1,0,0,0,1.1-1.1,1.42,1.42,0,0,0-.2-.6,3.59,3.59,0,0,0-1-.7,4.7,4.7,0,0,1-1.2-.9,1.69,1.69,0,0,1-.3-1,1.85,1.85,0,0,1,.5-1.2,2,2,0,0,1,1.3-.4A3.54,3.54,0,0,1,83.8,81.83Zm5.5-3.3c.2,0,.3.1.5.2a.76.76,0,0,1,.2.5c0,.2-.1.3-.2.5a.67.67,0,0,1-1,0,.6.6,0,0,1,0-.9A.55.55,0,0,1,89.3,78.53Zm-.4,2.6h.8v6.3h-.8Zm11.6,0h.8v5a6.45,6.45,0,0,1-.3,2,2.37,2.37,0,0,1-1.1,1.3,4.49,4.49,0,0,1-1.9.5,4,4,0,0,1-1.5-.3,2.46,2.46,0,0,1-1.8-1.8h.9a2.19,2.19,0,0,0,.9,1,3.42,3.42,0,0,0,2.8,0,1.09,1.09,0,0,0,.8-.8,4,4,0,0,0,.3-1.5v-.3a2.53,2.53,0,0,1-2.4,1.2,4.71,4.71,0,0,1-1.7-.4,3.19,3.19,0,0,1-1.6-2.8,3.37,3.37,0,0,1,.5-1.7,3.45,3.45,0,0,1,1.2-1.2,3.17,3.17,0,0,1,1.6-.4,2.77,2.77,0,0,1,1.3.3,2.94,2.94,0,0,1,1.2,1Zm-2.4.7a3.08,3.08,0,0,0-1.3.3,2,2,0,0,0-.9.9,2.77,2.77,0,0,0-.3,1.3,2.19,2.19,0,0,0,.7,1.7,2.57,2.57,0,0,0,1.8.7,2.41,2.41,0,0,0,1.8-.7,2.87,2.87,0,0,0,.7-1.8,3.08,3.08,0,0,0-.3-1.3,2,2,0,0,0-.9-.9A2,2,0,0,0,98.1,81.83Zm8.7-.7h.8v1.2a3.46,3.46,0,0,1,1.1-1A3.08,3.08,0,0,1,110,81a2.2,2.2,0,0,1,1.3.4,1.59,1.59,0,0,1,.8,1,6.28,6.28,0,0,1,.3,1.9v3.3h-.8v-3a7.57,7.57,0,0,0-.1-1.5,1.46,1.46,0,0,0-.6-.9,1.69,1.69,0,0,0-1-.3,2.11,2.11,0,0,0-1.3.5,2.55,2.55,0,0,0-.8,1.2,9.7,9.7,0,0,0-.1,1.7v2.3h-.8Zm16.3,4.3.7.3a4.44,4.44,0,0,1-.8,1.1,2.07,2.07,0,0,1-1,.6,2.74,2.74,0,0,1-1.3.2,2.8,2.8,0,0,1-2.4-1,3.17,3.17,0,0,1-.9-2.3,4.39,4.39,0,0,1,.7-2.2,3,3,0,0,1,2.5-1.2,3.22,3.22,0,0,1,2.6,1.2,3.41,3.41,0,0,1,.7,2.2h-5.7a2.41,2.41,0,0,0,.7,1.8,2.06,2.06,0,0,0,1.7.7,3.55,3.55,0,0,0,1-.2,3.51,3.51,0,0,0,.8-.5A1.21,1.21,0,0,0,123.1,85.43Zm0-1.7a2.26,2.26,0,0,0-1.3-1.7,2,2,0,0,0-1.1-.3,2.27,2.27,0,0,0-1.6.6,2.39,2.39,0,0,0-.7,1.3Zm5.8-2.6h.8V82a3,3,0,0,1,.8-.8,1.61,1.61,0,0,1,.9-.3,1.45,1.45,0,0,1,.7.2l-.4.7a.6.6,0,0,0-.4-.1,1.14,1.14,0,0,0-.8.3,2.38,2.38,0,0,0-.6,1.1,15,15,0,0,0-.2,2.2v2.2h-.8Z"/><rect class="cls-2" x="116" y="55.03" width="7.6" height="2.3"/></g></g></g></g></svg>